<svg width="24" height="25" viewBox="0 0 24 25" fill="none" xmlns="http://www.w3.org/2000/svg">
<path d="M11.9644 2.59229C6.44436 2.59229 1.96436 7.07229 1.96436 12.5923C1.96436 18.1123 6.44436 22.5923 11.9644 22.5923C17.4844 22.5923 21.9644 18.1123 21.9644 12.5923C21.9644 7.07229 17.4944 2.59229 11.9644 2.59229ZM14.9644 14.8223L12.0643 16.4923C11.7043 16.7023 11.3044 16.8023 10.9143 16.8023C10.5144 16.8023 10.1243 16.7023 9.76436 16.4923C9.04436 16.0723 8.61436 15.3323 8.61436 14.4923V11.1423C8.61436 10.3123 9.04436 9.56229 9.76436 9.14229C10.4844 8.72229 11.3443 8.72229 12.0743 9.14229L14.9743 10.8123C15.6943 11.2323 16.1243 11.9723 16.1243 12.8123C16.1243 13.6523 15.6943 14.4023 14.9644 14.8223Z" fill="#5D50C6"/>
</svg>
