<svg width="33" height="33" viewBox="0 0 33 33" fill="none" xmlns="http://www.w3.org/2000/svg">
<path d="M16.4033 32.5C25.2399 32.5 32.4033 25.3366 32.4033 16.5C32.4033 7.66344 25.2399 0.5 16.4033 0.5C7.56677 0.5 0.40332 7.66344 0.40332 16.5C0.40332 25.3366 7.56677 32.5 16.4033 32.5Z" fill="#5D50C6"/>
<path d="M21.2035 8.7H11.6035C9.93685 8.7 8.60352 10.0333 8.60352 11.7V21.3C8.60352 22.9667 9.93685 24.3 11.6035 24.3H21.2035C22.8702 24.3 24.2035 22.9667 24.2035 21.3V11.7C24.2035 10.0333 22.8702 8.7 21.2035 8.7ZM22.0702 10.5H22.4035V13.1667H19.7369V10.5H22.0702ZM14.2035 14.9C14.6702 14.2333 15.5369 13.7667 16.4035 13.7667C17.2702 13.7667 18.1369 14.2333 18.6035 14.9C18.9369 15.3667 19.1369 15.9 19.1369 16.5C19.1369 18.0333 17.8702 19.2333 16.4035 19.2333C14.9369 19.2333 13.6702 18.0333 13.6702 16.5C13.6702 15.9 13.8702 15.3667 14.2035 14.9ZM22.6702 21.3C22.6702 22.1 22.0035 22.7667 21.2035 22.7667H11.6035C10.8035 22.7667 10.1368 22.1 10.1368 21.3V14.9H12.4702C12.2702 15.3667 12.1369 15.9667 12.1369 16.5C12.1369 18.8333 14.0702 20.7667 16.4035 20.7667C18.7369 20.7667 20.6702 18.8333 20.6702 16.5C20.6702 15.9667 20.5368 15.3667 20.3369 14.9H22.6702L22.6702 21.3Z" fill="white"/>
</svg>
