<svg width="33" height="33" viewBox="0 0 33 33" fill="none" xmlns="http://www.w3.org/2000/svg">
<path d="M16.4033 32.5C25.2399 32.5 32.4033 25.3366 32.4033 16.5C32.4033 7.66344 25.2399 0.5 16.4033 0.5C7.56676 0.5 0.40332 7.66344 0.40332 16.5C0.40332 25.3366 7.56676 32.5 16.4033 32.5Z" fill="#5D50C6"/>
<path d="M26.2041 11.9987C25.5184 12.3027 24.7809 12.5084 24.0074 12.6002C24.7971 12.127 25.4032 11.3783 25.6893 10.4848C24.9503 10.9231 24.1314 11.2412 23.2607 11.4126C22.563 10.6696 21.569 10.2053 20.4684 10.2053C18.3567 10.2053 16.644 11.918 16.644 14.0297C16.644 14.3295 16.6779 14.6212 16.7435 14.9013C13.5651 14.7419 10.7468 13.2194 8.86043 10.9049C8.53129 11.4696 8.34248 12.127 8.34248 12.8278C8.34248 14.1543 9.01816 15.3254 10.0438 16.0111C9.41717 15.9914 8.82706 15.8194 8.31168 15.5322C8.31139 15.5485 8.31139 15.5647 8.31139 15.5807C8.31139 17.4337 9.63023 18.9793 11.3795 19.3304C11.0589 19.4183 10.7203 19.4648 10.3721 19.4648C10.1251 19.4648 9.88578 19.4411 9.65247 19.3966C10.1391 20.9157 11.5512 22.0214 13.2251 22.0525C11.9159 23.0784 10.2671 23.6897 8.47482 23.6897C8.16679 23.6897 7.86161 23.6717 7.56299 23.636C9.2546 24.7216 11.2654 25.3545 13.425 25.3545C20.4596 25.3545 24.3065 19.5269 24.3065 14.4726C24.3065 14.3069 24.3028 14.1418 24.2954 13.9781C25.0433 13.439 25.6915 12.7656 26.2041 11.9987Z" fill="#F1F2F2"/>
</svg>
