<svg width="24" height="25" viewBox="0 0 24 25" fill="none" xmlns="http://www.w3.org/2000/svg">
<path fill-rule="evenodd" clip-rule="evenodd" d="M10.7 4.11127C10.0296 4.11127 9.45934 4.57709 9.29926 5.20494H14.6819C14.5219 4.57709 13.9516 4.11127 13.2812 4.11127H10.7ZM16.2027 5.20493H18.1837C20.2847 5.20493 21.9956 6.93657 21.9956 9.06314C21.9956 9.06314 21.9356 9.96338 21.9156 11.2171C21.9136 11.3163 21.8655 11.4135 21.7865 11.4723C21.3053 11.8277 20.865 12.1214 20.825 12.1416C19.1642 13.2555 17.2342 14.0393 15.1782 14.4292C15.0441 14.4555 14.9121 14.3857 14.844 14.2662C14.2677 13.2677 13.1912 12.6176 11.9906 12.6176C10.798 12.6176 9.71146 13.2606 9.11817 14.2601C9.04914 14.3776 8.91906 14.4454 8.78601 14.4201C6.74698 14.0292 4.81702 13.2464 3.1662 12.1517L2.20572 11.4834C2.12568 11.4328 2.07565 11.3416 2.07565 11.2404C2.04564 10.7239 1.99561 9.06314 1.99561 9.06314C1.99561 6.93657 3.70647 5.20493 5.80752 5.20493H7.7785C7.9686 3.73659 9.19921 2.59229 10.7 2.59229H13.2812C14.782 2.59229 16.0126 3.73659 16.2027 5.20493ZM21.6554 13.4075L21.6154 13.4278C19.5944 14.7847 17.1632 15.686 14.6119 16.0607C14.2517 16.1113 13.8915 15.8784 13.7915 15.5139C13.5714 14.6835 12.861 14.1366 12.0106 14.1366H12.0006H11.9806C11.1302 14.1366 10.4198 14.6835 10.1997 15.5139C10.0997 15.8784 9.73948 16.1113 9.3793 16.0607C6.82803 15.686 4.39681 14.7847 2.3758 13.4278C2.3658 13.4177 2.26575 13.3569 2.18571 13.4075C2.09566 13.4582 2.09566 13.5797 2.09566 13.5797L2.1657 18.7442C2.1657 20.8708 3.86655 22.5923 5.9676 22.5923H18.0136C20.1147 22.5923 21.8155 20.8708 21.8155 18.7442L21.8956 13.5797C21.8956 13.5797 21.8956 13.4582 21.8055 13.4075C21.7555 13.3772 21.6955 13.3873 21.6554 13.4075ZM12.741 17.6506C12.741 18.0759 12.4108 18.41 11.9906 18.41C11.5804 18.41 11.2402 18.0759 11.2402 17.6506V16.3442C11.2402 15.929 11.5804 15.5847 11.9906 15.5847C12.4108 15.5847 12.741 15.929 12.741 16.3442V17.6506Z" fill="#F85E9F"/>
</svg>
