<svg width="28" height="26" viewBox="0 0 28 26" fill="none" xmlns="http://www.w3.org/2000/svg">
<path d="M21.6187 16.3247C21.2734 16.6593 21.1147 17.1433 21.1934 17.618L22.3787 24.178C22.4787 24.734 22.2441 25.2967 21.7787 25.618C21.3227 25.9513 20.7161 25.9913 20.2187 25.7247L14.3134 22.6447C14.1081 22.5353 13.8801 22.4767 13.6467 22.47H13.2854C13.1601 22.4887 13.0374 22.5287 12.9254 22.59L7.01872 25.6847C6.72672 25.8313 6.39606 25.8833 6.07206 25.8313C5.28272 25.682 4.75606 24.93 4.88539 24.1367L6.07206 17.5767C6.15072 17.098 5.99206 16.6113 5.64672 16.2713L0.832056 11.6047C0.429389 11.214 0.289389 10.6273 0.473389 10.098C0.652056 9.57003 1.10806 9.1847 1.65872 9.09803L8.28539 8.1367C8.78939 8.0847 9.23206 7.77803 9.45872 7.3247L12.3787 1.33803C12.4481 1.2047 12.5374 1.08203 12.6454 0.978031L12.7654 0.884697C12.8281 0.815364 12.9001 0.758031 12.9801 0.711364L13.1254 0.658031L13.3521 0.564697H13.9134C14.4147 0.616697 14.8561 0.916697 15.0867 1.3647L18.0454 7.3247C18.2587 7.7607 18.6734 8.06336 19.1521 8.1367L25.7787 9.09803C26.3387 9.17803 26.8067 9.5647 26.9921 10.098C27.1667 10.6327 27.0161 11.2193 26.6054 11.6047L21.6187 16.3247Z" fill="#FACD49"/>
</svg>
