<svg width="33" height="33" viewBox="0 0 33 33" fill="none" xmlns="http://www.w3.org/2000/svg">
<path d="M16.4033 0.5C7.58412 0.5 0.40332 7.6808 0.40332 16.5C0.40332 25.3192 7.58412 32.5 16.4033 32.5C25.2225 32.5 32.4033 25.3256 32.4033 16.5C32.4033 7.6744 25.2289 0.5 16.4033 0.5ZM20.8385 9.9912C20.8385 10.1256 20.7297 10.2344 20.5953 10.2344H18.6689C18.1953 10.2344 17.8113 10.6184 17.8113 11.092V13.108H20.5505C20.5569 13.108 20.5633 13.108 20.5697 13.108C20.7041 13.1208 20.8001 13.236 20.7873 13.3704L20.5441 16.212C20.5313 16.34 20.4289 16.436 20.3009 16.436H17.8049V25.8632C17.8049 25.9976 17.6961 26.1064 17.5617 26.1064H14.1185C13.9841 26.1064 13.8753 25.9976 13.8753 25.8632V16.5768V16.4232H12.1537C12.0193 16.4232 11.9105 16.3144 11.9105 16.18V13.3384C11.9105 13.204 12.0193 13.0952 12.1537 13.0952H13.8753V10.356C13.8753 8.4488 15.4241 6.9 17.3313 6.9H20.5825C20.7169 6.9 20.8257 7.0088 20.8257 7.1432V9.9912H20.8385Z" fill="#5D50C6"/>
</svg>
