<svg width="33" height="33" viewBox="0 0 33 33" fill="none" xmlns="http://www.w3.org/2000/svg">
<path fill-rule="evenodd" clip-rule="evenodd" d="M22.9895 4.5C24.7775 4.5 26.4975 5.20667 27.7628 6.47467C29.0295 7.74 29.7375 9.44667 29.7375 11.2333V21.7667C29.7375 25.4867 26.7108 28.5 22.9895 28.5H9.81747C6.09613 28.5 3.0708 25.4867 3.0708 21.7667V11.2333C3.0708 7.51333 6.0828 4.5 9.81747 4.5H22.9895ZM25.1108 13.22L25.2175 13.1133C25.5361 12.7267 25.5361 12.1667 25.2028 11.78C25.0175 11.5813 24.7628 11.46 24.4975 11.4333C24.2175 11.4187 23.9508 11.5133 23.7495 11.7L17.7375 16.5C16.9641 17.1413 15.8561 17.1413 15.0708 16.5L9.0708 11.7C8.65613 11.3933 8.0828 11.4333 7.73747 11.7933C7.37747 12.1533 7.33747 12.7267 7.6428 13.1267L7.81747 13.3L13.8841 18.0333C14.6308 18.62 15.5361 18.94 16.4841 18.94C17.4295 18.94 18.3508 18.62 19.0961 18.0333L25.1108 13.22Z" fill="#191825" fill-opacity="0.75"/>
</svg>
